<?xml version="1.0" standalone="no"?>
<!DOCTYPE svg PUBLIC "-//W3C//DTD SVG 20010904//EN"
 "http://www.w3.org/TR/2001/REC-SVG-20010904/DTD/svg10.dtd">
<svg version="1.0" xmlns="http://www.w3.org/2000/svg"
 width="421.000000pt" height="266.000000pt" viewBox="0 0 421.000000 266.000000"
 preserveAspectRatio="xMidYMid meet">
<metadata>
Created by potrace 1.15, written by Peter Selinger 2001-2017
</metadata>
<g transform="translate(0.000000,266.000000) scale(0.100000,-0.100000)"
fill="#000000" stroke="none">
<path d="M2230 2410 c-150 -26 -257 -74 -343 -154 -47 -44 -87 -132 -87 -189
1 -115 110 -292 196 -316 58 -16 59 -15 17 37 -75 92 -103 142 -80 142 26 -1
172 -56 171 -65 -1 -5 -19 -18 -40 -29 -22 -12 -41 -22 -43 -23 -7 -4 44 -62
56 -62 6 -1 18 5 25 12 7 7 27 22 43 32 35 23 50 41 88 107 35 63 36 122 2
190 -27 53 -28 54 -113 140 -31 32 -54 59 -52 61 17 15 182 87 212 92 21 4 42
13 49 21 9 12 6 14 -22 13 -19 -1 -54 -5 -79 -9z m-170 -188 c48 -52 80 -93
80 -103 0 -9 -12 -5 -167 62 -18 8 -33 17 -33 20 0 6 70 57 80 58 3 1 21 -16
40 -37z m76 -147 c34 -13 43 -22 46 -46 4 -23 1 -29 -14 -29 -10 0 -26 4 -36
10 -9 5 -37 16 -62 24 -69 22 -182 65 -187 70 -3 2 3 16 12 29 l16 25 92 -33
c51 -18 111 -40 133 -50z m-129 -60 c60 -20 116 -40 125 -45 10 -6 25 -10 33
-10 18 0 19 -9 1 -32 -15 -20 -43 -23 -78 -9 -13 5 -50 17 -83 26 -71 21 -107
36 -117 50 -11 15 -10 55 2 55 5 0 58 -16 117 -35z"/>
<path d="M1573 1744 c-10 -4 -13 -83 -13 -345 l0 -339 100 0 100 0 0 141 0
142 32 -7 c47 -9 66 -32 137 -161 l63 -115 115 0 115 0 -57 108 c-60 114 -83
144 -129 173 l-30 18 30 11 c44 17 92 57 110 92 20 38 22 134 4 168 -23 46
-64 80 -112 95 -48 14 -441 31 -465 19z m336 -144 c41 -11 51 -24 51 -66 0
-51 -29 -68 -121 -73 l-79 -3 0 69 c0 38 3 73 7 76 10 10 104 8 142 -3z"/>
<path d="M430 1400 l0 -340 105 0 105 0 0 81 0 80 51 55 c29 30 55 54 58 54 4
0 38 -61 76 -135 l70 -135 133 0 132 0 -24 38 c-13 20 -72 115 -131 210 l-107
174 93 96 c52 53 96 99 99 102 3 3 16 18 29 33 l24 27 -140 0 -139 0 -104
-120 c-56 -66 -107 -120 -111 -120 -5 0 -9 54 -9 120 l0 120 -105 0 -105 0 0
-340z"/>
<path d="M2620 1400 l0 -340 110 0 110 0 0 340 0 340 -110 0 -110 0 0 -340z"/>
<path d="M3260 1655 l0 -85 110 0 110 0 0 -255 0 -255 105 0 105 0 0 255 0
254 108 3 107 3 3 83 3 82 -326 0 -325 0 0 -85z"/>
<path d="M1220 1155 l0 -95 100 0 100 0 0 95 0 95 -100 0 -100 0 0 -95z"/>
<path d="M2287 1243 c-4 -3 -7 -46 -7 -95 l0 -88 105 0 105 0 0 95 0 95 -98 0
c-54 0 -102 -3 -105 -7z"/>
<path d="M2980 1155 l0 -95 100 0 100 0 0 95 0 95 -100 0 -100 0 0 -95z"/>
<path d="M1840 1147 c-9 -7 -28 -29 -44 -49 -43 -57 -46 -139 -11 -255 6 -19
3 -23 -14 -23 -20 0 -74 -28 -120 -62 -27 -19 -54 -90 -44 -115 7 -18 32 -42
46 -43 4 0 7 14 7 30 0 31 7 42 44 80 28 28 46 25 96 -19 25 -21 58 -49 74
-63 30 -26 39 -72 22 -110 -13 -28 11 -21 31 9 30 45 22 116 -25 213 -40 83
-82 188 -82 203 0 10 28 9 32 -1 2 -5 16 -15 32 -23 40 -19 42 -34 7 -50 -28
-13 -29 -14 -15 -41 16 -31 33 -35 66 -15 87 50 158 137 158 195 0 29 -3 32
-30 32 -23 0 -30 -4 -30 -20 0 -23 -13 -26 -32 -7 -7 7 -39 26 -70 42 -32 17
-68 38 -80 47 -22 16 -22 17 -4 37 21 23 11 28 -14 8z m17 -89 c54 -24 163
-92 163 -103 0 -19 -41 -36 -69 -30 -16 3 -38 15 -49 25 -12 11 -25 20 -29 20
-18 0 -64 53 -59 67 3 8 6 19 6 24 0 12 2 11 37 -3z m-26 -310 c33 -40 21 -51
-19 -18 -13 11 -21 24 -17 30 9 15 15 13 36 -12z"/>
</g>
</svg>
