<?xml version="1.0" standalone="no"?>
<!DOCTYPE svg PUBLIC "-//W3C//DTD SVG 20010904//EN"
 "http://www.w3.org/TR/2001/REC-SVG-20010904/DTD/svg10.dtd">
<svg version="1.0" xmlns="http://www.w3.org/2000/svg"
 width="207.000000pt" height="144.000000pt" viewBox="0 0 207.000000 144.000000"
 preserveAspectRatio="xMidYMid meet">
<metadata>
Created by potrace 1.16, written by Peter Selinger 2001-2019
</metadata>
<g transform="translate(0.000000,144.000000) scale(0.100000,-0.100000)"
fill="#000000" stroke="none">
<path d="M499 1164 c-59 -18 -124 -80 -138 -131 -35 -125 14 -204 179 -288 95
-48 123 -89 100 -145 -25 -60 -143 -78 -234 -35 -20 10 -38 16 -40 14 -10 -14
-25 -114 -18 -121 16 -16 116 -38 173 -38 190 0 306 131 257 292 -16 54 -74
109 -163 153 -123 61 -152 117 -88 174 24 21 34 23 96 18 37 -2 74 -10 80 -16
6 -6 16 -11 22 -11 13 0 39 110 28 120 -32 29 -180 37 -254 14z"/>
<path d="M917 1156 c-37 -12 -72 -27 -78 -33 -7 -7 -5 -27 7 -62 9 -28 17 -51
18 -51 0 0 23 11 50 25 84 42 184 27 206 -31 13 -33 13 -106 0 -138 -14 -38
-124 -170 -216 -261 -79 -77 -82 -82 -86 -132 -5 -53 -5 -53 238 -53 244 0
244 0 244 65 0 65 0 65 -135 65 -74 0 -135 3 -135 6 0 3 37 43 83 88 85 83
129 153 162 254 16 51 16 55 -4 121 -16 53 -30 77 -60 104 -69 62 -175 74
-294 33z"/>
<path d="M1373 1153 c5 -16 40 -110 146 -391 17 -46 31 -92 31 -103 0 -26 -62
-93 -105 -113 -40 -19 -39 -16 -21 -76 16 -53 30 -58 85 -31 120 61 166 146
296 538 31 92 59 174 62 181 4 10 -12 12 -72 10 -78 -3 -78 -3 -117 -168 -22
-91 -42 -167 -45 -170 -9 -9 -22 27 -64 181 -44 159 -44 159 -123 159 -70 0
-78 -2 -73 -17z"/>
</g>
</svg>
