<?xml version="1.0" standalone="no"?>
<!DOCTYPE svg PUBLIC "-//W3C//DTD SVG 20010904//EN"
 "http://www.w3.org/TR/2001/REC-SVG-20010904/DTD/svg10.dtd">
<svg version="1.0" xmlns="http://www.w3.org/2000/svg"
 width="373.000000pt" height="351.000000pt" viewBox="0 0 373.000000 351.000000"
 preserveAspectRatio="xMidYMid meet">
<metadata>
Created by potrace 1.16, written by Peter Selinger 2001-2019
</metadata>
<g transform="translate(0.000000,351.000000) scale(0.100000,-0.100000)"
fill="#000000" stroke="none">
<path d="M3057 3350 c-40 -12 -127 -70 -127 -84 0 -6 12 -24 26 -40 22 -25 29
-28 43 -18 77 56 117 66 159 36 17 -11 22 -25 22 -56 0 -38 -6 -47 -67 -107
-38 -37 -94 -90 -126 -119 -56 -51 -58 -54 -55 -98 3 -46 3 -46 183 -46 180 1
180 1 183 51 3 51 3 51 -102 51 -59 0 -106 3 -106 6 0 3 39 42 86 86 99 94
114 119 114 186 0 57 -28 106 -77 134 -37 22 -116 31 -156 18z"/>
<path d="M1210 2885 c-303 -65 -534 -328 -581 -661 -14 -95 -6 -283 16 -374
22 -93 104 -254 169 -333 73 -87 151 -148 251 -197 144 -70 165 -72 580 -74
361 -1 371 -2 411 -23 65 -35 100 -69 128 -125 68 -136 5 -304 -138 -369 -38
-17 -79 -19 -616 -19 -537 0 -578 -2 -616 -19 -86 -39 -135 -142 -114 -237 22
-95 92 -191 179 -242 46 -27 46 -27 645 -30 573 -2 603 -2 680 18 381 95 624
477 577 908 -30 272 -183 498 -416 613 -129 64 -171 69 -582 69 -344 0 -365 1
-419 21 -191 72 -241 324 -92 466 18 17 55 41 81 52 47 20 65 21 678 21 696 0
662 -3 745 66 49 40 98 133 109 206 14 95 -42 204 -128 251 -42 22 -42 22
-762 24 -583 1 -732 -1 -785 -12z"/>
</g>
</svg>
